<svg width="24" height="25" viewBox="0 0 24 25" fill="none" xmlns="http://www.w3.org/2000/svg">
<g id="brand" clip-path="url(#clip0_3002_1230)">
<path id="Logo / Apple / OFF" d="M11.6324 6.53379C10.8081 6.53379 9.53202 5.59065 8.18823 5.62474C6.41534 5.64747 4.78925 6.65878 3.87457 8.26097C2.03392 11.4767 3.40029 16.2265 5.19577 18.84C6.07657 20.1126 7.11546 21.5444 8.49313 21.4989C9.81433 21.4421 10.3112 20.6354 11.9147 20.6354C13.5069 20.6354 13.9586 21.4989 15.3589 21.4649C16.7817 21.4421 17.6851 20.1695 18.5546 18.8854C19.5596 17.4082 19.9774 15.9765 20 15.897C19.9661 15.8856 17.2334 14.8288 17.1995 11.6472C17.1769 8.98821 19.3563 7.71555 19.458 7.65873C18.2158 5.82928 16.3074 5.62474 15.6412 5.57929C13.9021 5.44293 12.4454 6.53379 11.6324 6.53379ZM14.5684 3.8521C15.3024 2.96579 15.788 1.72721 15.6525 0.5C14.6023 0.545452 13.3375 1.20451 12.5809 2.09083C11.9034 2.87488 11.3162 4.13618 11.4743 5.34067C12.6374 5.43157 13.8344 4.73842 14.5684 3.8521Z" fill="#141416"/>
</g>
<defs>
<clipPath id="clip0_3002_1230">
<rect width="24" height="24" fill="white" transform="translate(0 0.5)"/>
</clipPath>
</defs>
</svg>
