<svg width="20" height="20" viewBox="0 0 20 20" fill="none" xmlns="http://www.w3.org/2000/svg">
<g id="bell">
<path id="Vector 1654 (Stroke)" fill-rule="evenodd" clip-rule="evenodd" d="M7.70801 17.5C7.70801 17.1548 7.98783 16.875 8.33301 16.875L11.6663 16.875C12.0115 16.875 12.2913 17.1548 12.2913 17.5C12.2913 17.8452 12.0115 18.125 11.6663 18.125L8.33301 18.125C7.98783 18.125 7.70801 17.8452 7.70801 17.5Z" fill="#141416"/>
<path id="Rectangle 9892 (Stroke)" fill-rule="evenodd" clip-rule="evenodd" d="M2.70801 9.16667C2.70801 5.13959 5.9726 1.875 9.99967 1.875C14.0268 1.875 17.2913 5.13959 17.2913 9.16667V12.9167C17.2913 14.4124 16.0788 15.625 14.583 15.625H5.41634C3.92057 15.625 2.70801 14.4124 2.70801 12.9167V9.16667ZM9.99967 3.125C6.66295 3.125 3.95801 5.82995 3.95801 9.16667V12.9167C3.95801 13.7221 4.61093 14.375 5.41634 14.375H14.583C15.3884 14.375 16.0413 13.7221 16.0413 12.9167V9.16667C16.0413 5.82995 13.3364 3.125 9.99967 3.125Z" fill="#141416"/>
</g>
</svg>
