<svg width="24" height="25" viewBox="0 0 24 25" fill="none" xmlns="http://www.w3.org/2000/svg">
<g id="brand">
<g id="Logo / Google / OFF">
<path d="M21.5533 12.7361C21.5533 12.0771 21.4949 11.4514 21.3948 10.8424H11.9679V14.6048H17.3654C17.1235 15.8395 16.4144 16.8823 15.3633 17.5914V20.0941H18.5834C20.4688 18.3505 21.5533 15.7811 21.5533 12.7361Z" fill="#141416"/>
<path d="M11.9679 22.5217C14.6708 22.5217 16.9316 21.6208 18.5834 20.0941L15.3633 17.5914C14.4623 18.192 13.3194 18.5591 11.9679 18.5591C9.35673 18.5591 7.146 16.7989 6.35347 14.4213H3.0332V16.9991C4.67665 20.2693 8.05532 22.5217 11.9679 22.5217Z" fill="#141416"/>
<path d="M6.35347 14.4213C6.14491 13.8206 6.03646 13.1783 6.03646 12.5109C6.03646 11.8435 6.15325 11.2011 6.35347 10.6005V8.02267H3.0332C2.34912 9.37413 1.95703 10.8924 1.95703 12.5109C1.95703 14.1293 2.34912 15.6476 3.0332 16.9991L6.35347 14.4213Z" fill="#141416"/>
<path d="M11.9679 6.46264C13.4445 6.46264 14.7626 6.97152 15.8054 7.96427L18.6585 5.11117C16.9316 3.49274 14.6708 2.5 11.9679 2.5C8.05532 2.5 4.67665 4.75245 3.0332 8.02267L6.35347 10.6005C7.146 8.22288 9.35673 6.46264 11.9679 6.46264Z" fill="#141416"/>
</g>
</g>
</svg>
