<svg width="25" height="24" viewBox="0 0 25 24" fill="none" xmlns="http://www.w3.org/2000/svg">
<g id="location">
<path id="Union (Stroke)" fill-rule="evenodd" clip-rule="evenodd" d="M17.0962 15.9099C19.6346 13.3715 19.6346 9.25595 17.0962 6.71754C14.5578 4.17913 10.4422 4.17913 7.90381 6.71754C5.3654 9.25595 5.3654 13.3715 7.90381 15.9099L12.5 20.5061L17.0962 15.9099ZM18.1569 5.65688C21.281 8.78107 21.281 13.8464 18.1569 16.9706L13.2071 21.9203C12.8166 22.3109 12.1834 22.3109 11.7929 21.9203L6.84315 16.9706C3.71895 13.8464 3.71895 8.78107 6.84315 5.65688C9.96734 2.53268 15.0327 2.53268 18.1569 5.65688Z" fill="white"/>
<path id="Ellipse 1876" d="M12.5 13C11.6716 13 11 12.3284 11 11.5C11 10.6716 11.6716 10 12.5 10C13.3284 10 14 10.6716 14 11.5C14 12.3284 13.3284 13 12.5 13Z" fill="white"/>
</g>
</svg>
