<svg width="152" height="152" viewBox="0 0 152 152" fill="none" xmlns="http://www.w3.org/2000/svg">
<path fill-rule="evenodd" clip-rule="evenodd" d="M86.7245 85.1232C92.6474 79.2002 92.6474 69.5972 86.7245 63.6743C80.8015 57.7513 71.1985 57.7513 65.2755 63.6743C59.3526 69.5972 59.3526 79.2002 65.2755 85.1232L76 95.8476L86.7245 85.1232ZM89.1993 61.1994C96.4891 68.4892 96.4891 80.3082 89.1993 87.598L77.6499 99.1474C76.7387 100.059 75.2613 100.059 74.3501 99.1474L62.8007 87.598C55.5109 80.3082 55.5109 68.4892 62.8007 61.1994C70.0905 53.9096 81.9095 53.9096 89.1993 61.1994Z" fill="#7CFF79"/>
<path d="M76 78.3333C74.067 78.3333 72.5 76.7662 72.5 74.8333C72.5 72.9003 74.067 71.3333 76 71.3333C77.933 71.3333 79.5 72.9003 79.5 74.8333C79.5 76.7662 77.933 78.3333 76 78.3333Z" fill="#7CFF79"/>
<circle cx="125.5" cy="56.5" r="5.5" fill="#24B34C"/>
<circle cx="32" cy="95" r="3" fill="#AAF6C0"/>
<circle cx="108" cy="114" r="2" fill="#AAF6C0"/>
<circle cx="102" cy="27" r="2" fill="#AAF6C0"/>
<circle cx="47" cy="38" r="2" fill="#7CFF79"/>
<circle cx="1" cy="1" r="1" transform="matrix(1 0 0 -1 144 101)" fill="#7CFF79"/>
<circle cx="1" cy="1" r="1" transform="matrix(1 0 0 -1 48 124)" fill="#7CFF79"/>
<circle cx="1" cy="1" r="1" transform="matrix(1 0 0 -1 9 66)" fill="#7CFF79"/>
</svg>
