<svg width="24" height="24" viewBox="0 0 24 24" fill="none" xmlns="http://www.w3.org/2000/svg">
<g id="menu">
<path id="Rectangle 5637 (Stroke)" fill-rule="evenodd" clip-rule="evenodd" d="M9 5.5H6C5.72386 5.5 5.5 5.72386 5.5 6V9C5.5 9.27614 5.72386 9.5 6 9.5H9C9.27614 9.5 9.5 9.27614 9.5 9V6C9.5 5.72386 9.27614 5.5 9 5.5ZM6 4C4.89543 4 4 4.89543 4 6V9C4 10.1046 4.89543 11 6 11H9C10.1046 11 11 10.1046 11 9V6C11 4.89543 10.1046 4 9 4H6Z" fill="#141416"/>
<path id="Rectangle 5638 (Stroke)" fill-rule="evenodd" clip-rule="evenodd" d="M18 5.5H15C14.7239 5.5 14.5 5.72386 14.5 6V9C14.5 9.27614 14.7239 9.5 15 9.5H18C18.2761 9.5 18.5 9.27614 18.5 9V6C18.5 5.72386 18.2761 5.5 18 5.5ZM15 4C13.8954 4 13 4.89543 13 6V9C13 10.1046 13.8954 11 15 11H18C19.1046 11 20 10.1046 20 9V6C20 4.89543 19.1046 4 18 4H15Z" fill="#141416"/>
<path id="Rectangle 5639 (Stroke)" fill-rule="evenodd" clip-rule="evenodd" d="M9 14.5H6C5.72386 14.5 5.5 14.7239 5.5 15V18C5.5 18.2761 5.72386 18.5 6 18.5H9C9.27614 18.5 9.5 18.2761 9.5 18V15C9.5 14.7239 9.27614 14.5 9 14.5ZM6 13C4.89543 13 4 13.8954 4 15V18C4 19.1046 4.89543 20 6 20H9C10.1046 20 11 19.1046 11 18V15C11 13.8954 10.1046 13 9 13H6Z" fill="#141416"/>
<path id="Rectangle 5640 (Stroke)" fill-rule="evenodd" clip-rule="evenodd" d="M18 14.5H15C14.7239 14.5 14.5 14.7239 14.5 15V18C14.5 18.2761 14.7239 18.5 15 18.5H18C18.2761 18.5 18.5 18.2761 18.5 18V15C18.5 14.7239 18.2761 14.5 18 14.5ZM15 13C13.8954 13 13 13.8954 13 15V18C13 19.1046 13.8954 20 15 20H18C19.1046 20 20 19.1046 20 18V15C20 13.8954 19.1046 13 18 13H15Z" fill="#141416"/>
</g>
</svg>
