<svg width="24" height="24" viewBox="0 0 24 24" fill="none" xmlns="http://www.w3.org/2000/svg">
<g id="number">
<rect width="24" height="24" rx="12" fill="#1F41F4"/>
<path id="3" d="M9.86035 16.5762C9.23145 16.1478 8.80306 15.5234 8.5752 14.7031L10.3115 14.0195C10.4209 14.4753 10.6214 14.8262 10.9131 15.0723C11.2048 15.3184 11.5693 15.4414 12.0068 15.4414C12.4079 15.4414 12.7542 15.3229 13.0459 15.0859C13.3376 14.849 13.4834 14.5391 13.4834 14.1562C13.4834 13.7461 13.3285 13.4271 13.0186 13.1992C12.6995 12.9622 12.2757 12.8438 11.7471 12.8438H10.9268V11.1758H11.6787C12.0889 11.1758 12.4398 11.071 12.7314 10.8613C13.014 10.6608 13.1553 10.3646 13.1553 9.97266C13.1553 9.66276 13.0368 9.40299 12.7998 9.19336C12.5628 8.98372 12.2666 8.87891 11.9111 8.87891C11.5283 8.87891 11.2184 8.98372 10.9814 9.19336C10.7445 9.40299 10.5804 9.6582 10.4893 9.95898L8.82129 9.27539C9.0127 8.71029 9.37728 8.22266 9.91504 7.8125C10.4528 7.40234 11.1227 7.19727 11.9248 7.19727C12.5081 7.19727 13.0413 7.3112 13.5244 7.53906C13.9893 7.75781 14.3538 8.06315 14.6182 8.45508C14.8825 8.84701 15.0146 9.28451 15.0146 9.76758C15.0146 10.2689 14.8962 10.7064 14.6592 11.0801C14.4313 11.4447 14.1442 11.709 13.7979 11.873V11.9824C14.2627 12.1738 14.641 12.4701 14.9326 12.8711C15.2243 13.2721 15.3701 13.7552 15.3701 14.3203C15.3701 14.8581 15.2288 15.3548 14.9463 15.8105C14.6729 16.248 14.2764 16.5944 13.7568 16.8496C13.2464 17.0957 12.6631 17.2188 12.0068 17.2188C11.1956 17.2188 10.4801 17.0046 9.86035 16.5762Z" fill="white"/>
</g>
</svg>
