<svg width="25" height="24" viewBox="0 0 25 24" fill="none" xmlns="http://www.w3.org/2000/svg">
<g id="search">
<path id="Union" fill-rule="evenodd" clip-rule="evenodd" d="M12.25 3C7.41751 3 3.5 6.91751 3.5 11.75C3.5 16.5825 7.41751 20.5 12.25 20.5C14.3963 20.5 16.362 19.7273 17.8843 18.4448L20.7198 21.2803C21.0127 21.5732 21.4876 21.5732 21.7804 21.2803C22.0733 20.9874 22.0733 20.5126 21.7804 20.2197L18.9449 17.3842C20.2273 15.8619 21 13.8962 21 11.75C21 6.91751 17.0825 3 12.25 3ZM5 11.75C5 7.74594 8.24594 4.5 12.25 4.5C16.2541 4.5 19.5 7.74594 19.5 11.75C19.5 15.7541 16.2541 19 12.25 19C8.24594 19 5 15.7541 5 11.75Z" fill="white"/>
</g>
</svg>
