<svg width="110" height="41" viewBox="0 0 110 41" fill="none" xmlns="http://www.w3.org/2000/svg">
<path d="M14.5914 6.0769C22.5572 6.0769 29.0146 12.5344 29.0146 20.5001C29.0146 28.4658 22.5572 34.9233 14.5914 34.9233L3.77404 34.9233C1.78261 34.9233 0.16824 33.3089 0.16824 31.3175L0.168241 20.5001C0.168241 12.5344 6.62573 6.0769 14.5914 6.0769Z" fill="#24B34C"/>
<g clip-path="url(#clip0_2962_1052)">
<path d="M10.0944 18.3712C10.0944 17.5774 10.3002 16.9796 10.7118 16.5778C11.1234 16.176 11.6134 15.9751 12.1818 15.9751C12.76 15.9751 13.544 16.0731 14.5338 16.2691C15.5236 16.4651 16.2684 16.568 16.7682 16.5778C17.6012 16.421 18.395 16.2299 19.1496 16.0045C19.228 16.2593 19.2672 16.5778 19.2672 16.96C19.2672 17.7538 19.0369 18.3516 18.5763 18.7534C18.1255 19.1552 17.5473 19.3561 16.8417 19.3561C16.6653 19.3561 16.4301 19.3463 16.1361 19.3267C15.5971 22.1589 15.3276 23.7416 15.3276 24.0748C15.3276 25.0254 15.4746 25.7359 15.7686 26.2063C15.1806 26.6473 14.5681 26.8678 13.9311 26.8678C13.2941 26.8678 12.8384 26.6865 12.564 26.3239C12.2896 25.9515 12.1524 25.4027 12.1524 24.6775C12.1524 23.9425 12.4366 21.9923 13.005 18.8269C11.8976 18.9739 10.9666 19.1405 10.212 19.3267C10.1336 19.0817 10.0944 18.7632 10.0944 18.3712Z" fill="white"/>
</g>
<path d="M49.9455 17.2918C49.9062 17.7832 49.7391 18.3533 49.4443 19.0019C48.6973 18.9233 47.9897 18.884 47.3213 18.884H46.7906C45.8864 23.2675 45.4343 25.9998 45.4343 27.0809C45.4343 27.651 45.5522 27.936 45.7881 27.936C46.0436 27.936 46.7021 27.6903 47.7636 27.1989L48.2944 28.1719C46.5449 29.6265 44.9232 30.3538 43.4293 30.3538C42.7413 30.3538 42.1712 30.1376 41.7191 29.7051C41.2866 29.2727 41.0704 28.7026 41.0704 27.995C41.0704 27.2677 41.149 26.4519 41.3063 25.5477C41.4832 24.6435 41.7191 23.5427 42.014 22.2453C42.3088 20.9283 42.525 19.8668 42.6626 19.0609C41.9353 19.1199 41.3948 19.1788 41.0409 19.2378C41.0016 19.0019 40.982 18.6874 40.982 18.2943C40.982 17.8815 41.0114 17.5473 41.0704 17.2918H42.928C43.0853 16.2303 43.1639 15.2278 43.1639 14.2843L43.1344 13.3702V13.2818C44.6676 12.751 46.1124 12.4857 47.4688 12.4857C47.5474 12.8788 47.5867 13.3702 47.5867 13.9599C47.5867 14.5496 47.4196 15.6603 47.0854 17.2918H49.9455ZM50.2901 30.0885H50.0837C50.0444 29.9312 50.0248 29.5774 50.0248 29.027C50.0248 28.4569 50.2901 26.9433 50.8209 24.4862C51.3516 22.0291 51.617 20.6236 51.617 20.2698C51.617 19.6604 51.3418 18.9921 50.7914 18.2648L50.526 17.911L50.5555 17.5277C51.617 17.2328 53.3173 17.0854 55.6565 17.0854C55.8924 17.5965 56.0103 18.3139 56.0103 19.2378C56.2265 18.884 56.6787 18.4122 57.3666 17.8225C58.0546 17.2328 58.7623 16.938 59.4896 16.938C60.5511 16.938 61.0818 17.8618 61.0818 19.7096C60.9835 19.8275 60.8459 19.9848 60.669 20.1814C60.5118 20.3583 60.1776 20.6138 59.6665 20.948C59.1751 21.2821 58.6935 21.4885 58.2217 21.5672C58.2021 21.5672 58.035 21.3018 57.7205 20.7711C57.406 20.2403 57.1701 19.975 57.0128 19.975C56.5214 20.1519 56.0889 20.4467 55.7155 20.8595C54.8112 24.9285 54.3591 27.5625 54.3591 28.7616C54.3591 29.1941 54.369 29.4987 54.3886 29.6757C53.7006 29.9509 52.3345 30.0885 50.2901 30.0885ZM69.2274 17.793C69.2667 17.7537 69.3748 17.4982 69.5517 17.0264C70.4756 17.0264 71.714 17.3016 73.2669 17.852C72.7755 19.4835 72.3823 21.1937 72.0875 22.9825C71.7926 24.7516 71.6452 26.0195 71.6452 26.7861C71.6452 27.5331 71.7238 27.9065 71.8811 27.9065C71.999 27.9065 72.4315 27.7198 73.1784 27.3463L73.5323 27.1694L74.063 28.2014C73.8861 28.3586 73.6502 28.5552 73.3554 28.7911C73.0802 29.027 72.5494 29.3513 71.7631 29.7641C70.9769 30.1573 70.2692 30.3538 69.6402 30.3538C68.4215 30.3538 67.7138 29.8034 67.5172 28.7026C66.2592 29.8034 65.1191 30.3538 64.0969 30.3538C63.0944 30.3538 62.2393 29.9607 61.5317 29.1744C60.8437 28.3881 60.4997 27.1497 60.4997 25.4592C60.4997 22.8252 61.0403 20.7514 62.1214 19.2378C63.2025 17.7046 64.5097 16.938 66.043 16.938C67.1438 16.938 68.2052 17.223 69.2274 17.793ZM65.8661 27.8476C66.3378 27.8476 66.8686 27.6608 67.4583 27.2873C67.5959 24.5157 68.0578 21.7736 68.8441 19.0609C68.2544 18.8054 67.7531 18.6776 67.3403 18.6776C66.6327 18.6776 66.0233 19.3754 65.5122 20.7711C65.0208 22.147 64.7751 23.6705 64.7751 25.3413C64.7751 27.0121 65.1387 27.8476 65.8661 27.8476ZM77.4676 16.938C78.3326 16.938 78.9714 17.1149 79.3842 17.4687C79.8167 17.8225 80.0329 18.5498 80.0329 19.6506C80.0329 20.2403 79.856 21.4492 79.5021 23.2773C79.1483 25.0858 78.9714 26.1866 78.9714 26.5797C78.9714 27.366 79.1287 27.7591 79.4432 27.7591C80.1901 27.7591 81.0059 27.2087 81.8905 26.1079C82.7947 24.9875 83.2665 24.0538 83.3058 23.3068L81.3008 21.0659C81.3794 20.2207 81.5858 19.454 81.92 18.7661C82.2541 18.0781 82.5686 17.5965 82.8635 17.3213L83.2763 16.938C84.1215 16.938 84.7604 17.164 85.1928 17.6161C85.6253 18.0682 85.8415 18.599 85.8415 19.2083C85.8415 20.7612 85.4582 22.4026 84.6916 24.1324C83.925 25.8622 82.9028 27.3365 81.6251 28.5552C80.3474 29.7543 79.05 30.3538 77.733 30.3538C76.9074 30.3538 76.2686 30.0983 75.8165 29.5872C75.384 29.0761 75.1678 28.4078 75.1678 27.5822C75.1678 26.7369 75.2268 25.6067 75.3447 24.1914C75.4823 22.7761 75.5511 21.3706 75.5511 19.975C75.5511 19.6604 75.4332 19.287 75.1973 18.8545C74.981 18.4221 74.755 18.0781 74.5191 17.8225L74.6076 17.4687C75.669 17.1149 76.6224 16.938 77.4676 16.938ZM86.0938 24.899C86.0938 22.4419 86.8309 20.5057 88.3052 19.0904C89.7991 17.6554 91.4896 16.938 93.3767 16.938C94.5364 16.938 95.4898 17.223 96.2367 17.793C96.9837 18.3631 97.3572 19.1297 97.3572 20.0929C97.3572 21.0364 97.1115 21.8325 96.6201 22.4812C96.1483 23.1299 95.5684 23.6311 94.8804 23.985C93.4848 24.673 92.2071 25.1054 91.0473 25.2823L90.3397 25.3708C90.4773 27.2185 91.234 28.1424 92.61 28.1424C93.0818 28.1424 93.5831 28.0245 94.1138 27.7886C94.6445 27.5527 95.0573 27.3168 95.3522 27.0809L95.7945 26.7271L96.5021 27.6707C96.3449 27.8869 96.0303 28.1719 95.5586 28.5257C95.0868 28.8796 94.6445 29.1744 94.2317 29.4103C93.0916 30.0393 91.8434 30.3538 90.4871 30.3538C89.1308 30.3538 88.0594 29.8722 87.2732 28.909C86.4869 27.9458 86.0938 26.6092 86.0938 24.899ZM90.3102 23.926C91.3127 23.7491 92.1088 23.3265 92.6985 22.6581C93.2882 21.9898 93.5831 21.1249 93.5831 20.0634C93.5831 19.0019 93.2685 18.4712 92.6395 18.4712C91.8926 18.4712 91.3127 19.11 90.8999 20.3877C90.5067 21.6458 90.3102 22.8252 90.3102 23.926ZM97.8706 24.899C97.8706 22.4419 98.6078 20.5057 100.082 19.0904C101.576 17.6554 103.266 16.938 105.154 16.938C106.313 16.938 107.267 17.223 108.014 17.793C108.761 18.3631 109.134 19.1297 109.134 20.0929C109.134 21.0364 108.888 21.8325 108.397 22.4812C107.925 23.1299 107.345 23.6311 106.657 23.985C105.262 24.673 103.984 25.1054 102.824 25.2823L102.117 25.3708C102.254 27.2185 103.011 28.1424 104.387 28.1424C104.859 28.1424 105.36 28.0245 105.891 27.7886C106.421 27.5527 106.834 27.3168 107.129 27.0809L107.571 26.7271L108.279 27.6707C108.122 27.8869 107.807 28.1719 107.335 28.5257C106.864 28.8796 106.421 29.1744 106.009 29.4103C104.869 30.0393 103.62 30.3538 102.264 30.3538C100.908 30.3538 99.8363 29.8722 99.0501 28.909C98.2638 27.9458 97.8706 26.6092 97.8706 24.899ZM102.087 23.926C103.09 23.7491 103.886 23.3265 104.475 22.6581C105.065 21.9898 105.36 21.1249 105.36 20.0634C105.36 19.0019 105.045 18.4712 104.416 18.4712C103.669 18.4712 103.09 19.11 102.677 20.3877C102.284 21.6458 102.087 22.8252 102.087 23.926Z" fill="#141416"/>
<defs>
<clipPath id="clip0_2962_1052">
<rect width="14.4232" height="14.4232" fill="white" transform="translate(7.37988 13.2886)"/>
</clipPath>
</defs>
</svg>
